<?xml version="1.0" encoding="utf-8"?>
<!-- Generator: Adobe Illustrator 28.1.0, SVG Export Plug-In . SVG Version: 6.00 Build 0)  -->
<svg version="1.1" id="Layer_1" xmlns="http://www.w3.org/2000/svg" xmlns:xlink="http://www.w3.org/1999/xlink" x="0px" y="0px"
	 width="64.6px" height="29.6px" viewBox="0 0 64.6 29.6" style="enable-background:new 0 0 64.6 29.6;" xml:space="preserve">
<style type="text/css">
	.st0{fill-rule:evenodd;clip-rule:evenodd;fill:#38D1FF;}
</style>
<path class="st0" d="M6.6,1.8c-1.1,0-2,0.9-2,2v8.5c2,0.3,3.5,2,3.5,4v5.3h48.5v-5.3c0-2.2,1.7-3.9,3.8-4V3.8c0-1.1-0.9-2-2-2
	C58.4,1.8,6.6,1.8,6.6,1.8z M60.4,14c-0.1,0-0.2,0-0.4,0.1c-1,0.2-1.7,1.1-1.7,2.2v7.1h-52v-7.1c0-1-0.7-1.9-1.7-2.2l0,0
	C4.4,14.1,4.2,14,4,14c-1.2,0-2.2,1-2.2,2.2v8.1v1.2v1.2c0,0.6,0.4,1,1,1h59c0.6,0,1-0.4,1-1v-2.5l0,0v-8.1c0-1.2-1-2.2-2.2-2.2
	C60.5,14,60.4,14,60.4,14L60.4,14z M32.5,19.6V3.5h1.8v16.1H32.5z"/>
</svg>
