<?xml version="1.0" encoding="UTF-8"?>
<svg id="Layer_1" data-name="Layer 1" xmlns="http://www.w3.org/2000/svg" viewBox="0 0 160 160">
  <defs>
    <style>
      .cls-1, .cls-2 {
        fill: #ea2228;
      }

      .cls-3 {
        fill: none;
        stroke-linecap: round;
        stroke-linejoin: round;
        stroke-width: 4px;
      }

      .cls-3, .cls-4 {
        stroke: #ea2228;
      }

      .cls-2 {
        stroke: #fff;
      }

      .cls-2, .cls-4 {
        stroke-miterlimit: 10;
      }

      .cls-4 {
        fill: #fff;
      }
    </style>
  </defs>
  <g>
    <path class="cls-4" d="m150.67,92.1c-20.52-5.86-120.81-5.86-141.33,0-1.84.52-3.67-.84-3.67-2.75V18.51c0-1.91,1.85-3.3,3.68-2.75,20.53,6.22,120.8,6.22,141.33,0,1.83-.56,3.67.83,3.67,2.75v70.84c0,1.91-1.83,3.27-3.67,2.75h0Z"/>
    <path class="cls-2" d="m45.1,78.53h21.29c6.39,0,11.57,5.19,11.57,11.57v40.97c0,1.35-1.1,2.45-2.45,2.45h-39.53c-1.35,0-2.45-1.1-2.45-2.45v-40.97c0-6.39,5.19-11.57,11.57-11.57Z"/>
    <path class="cls-2" d="m93.61,78.53h21.3c6.39,0,11.57,5.19,11.57,11.57v40.97c0,1.35-1.1,2.45-2.45,2.45h-39.53c-1.35,0-2.45-1.1-2.45-2.45v-40.97c0-6.39,5.19-11.57,11.57-11.57Z"/>
    <path class="cls-2" d="m20.84,89.36h21.29c6.39,0,11.57,5.19,11.57,11.57v40.97c0,1.35-1.1,2.45-2.45,2.45H11.72c-1.35,0-2.45-1.1-2.45-2.45v-40.97c0-6.39,5.19-11.57,11.57-11.57Z"/>
    <path class="cls-2" d="m69.35,89.36h21.3c6.39,0,11.57,5.19,11.57,11.57v40.97c0,1.35-1.1,2.45-2.45,2.45h-39.53c-1.35,0-2.45-1.1-2.45-2.45v-40.97c0-6.39,5.19-11.57,11.57-11.57Z"/>
    <path class="cls-2" d="m117.87,89.36h21.29c6.39,0,11.57,5.19,11.57,11.57v40.97c0,1.35-1.1,2.45-2.45,2.45h-39.53c-1.35,0-2.45-1.1-2.45-2.45v-40.97c0-6.39,5.19-11.57,11.57-11.57Z"/>
  </g>
  <g>
    <circle class="cls-1" cx="65.51" cy="36.57" r="4.33"/>
    <circle class="cls-1" cx="97.43" cy="36.57" r="4.33"/>
    <path class="cls-3" d="m59.64,68.17c0-12.37,10.03-20.81,22.4-20.81s22.4,8.44,22.4,20.81"/>
  </g>
</svg>