<?xml version="1.0" encoding="utf-8"?>
<!-- Generator: Adobe Illustrator 27.8.1, SVG Export Plug-In . SVG Version: 6.00 Build 0)  -->
<svg version="1.1" id="Layer_1" xmlns="http://www.w3.org/2000/svg" xmlns:xlink="http://www.w3.org/1999/xlink" x="0px" y="0px"
	 width="27px" height="27px" viewBox="0 0 27 27" style="enable-background:new 0 0 27 27;" xml:space="preserve">
<style type="text/css">
	.st0{fill-rule:evenodd;clip-rule:evenodd;fill:#FFFFFF;}
	.st1{fill:#FF0013;}
</style>
<g>
	<g>
		<path class="st0" d="M3.3,2.9c0-1.1,0.9-2,2-2h16.4c1.1,0,2,0.9,2,2v8.5c-1.9,0.3-3.4,1.9-3.4,4v5.3H6.7v-5.3c0-2-1.5-3.7-3.4-4
			C3.3,11.4,3.3,2.9,3.3,2.9z M22,22.4H4.9v-7.1c0-1.2-1-2.2-2.2-2.2s-2.2,1-2.2,2.2v8.1v1.2v1.2c0,0.6,0.4,1,1,1h24
			c0.6,0,1-0.4,1-1v-1.2c0,0,0,0,0-0.1v-9.3c0-1.2-1-2.2-2.2-2.2s-2.2,1-2.2,2.2L22,22.4L22,22.4z"/>
		<g>
			<path class="st1" d="M19.8,7.2l-4.4,0.1h-0.1L14.2,3c-0.1-0.2-0.3-0.4-0.5-0.4h-0.1c-0.2,0-0.3,0.2-0.4,0.4L12,7.3L7.5,7
				C7.2,7,7,7.1,6.9,7.4c0,0.1,0,0.2,0,0.4C7,7.8,7,7.9,7.1,8l3.7,2.5v0.1l-1.6,4c0,0.1,0,0.2,0,0.3s0.1,0.2,0.2,0.3
				c0.2,0.2,0.5,0.1,0.7,0l0.6-0.5l2.9-2.3l3.5,2.8c0.2,0.1,0.4,0.1,0.6,0l0,0l0,0c0.1-0.1,0.2-0.2,0.2-0.4v-0.1l-0.2-0.6l-1.4-3.8
				l3.8-2.4c0.2-0.1,0.3-0.4,0.2-0.6l0,0C20.2,7.3,20,7.2,19.8,7.2"/>
		</g>
	</g>
</g>
</svg>
