<?xml version="1.0" encoding="UTF-8"?>
<svg version="1.1" xmlns="http://www.w3.org/2000/svg" width="150" height="150">
<path d="M0 0 C0.87269531 -0.01224609 1.74539062 -0.02449219 2.64453125 -0.03710938 C7.86197152 -0.04887804 12.22625934 0.33460846 17.125 2.1875 C23.07508143 8.29416252 22.33861543 14.45446109 22.375 22.5 C22.395625 23.62857422 22.41625 24.75714844 22.4375 25.91992188 C22.4889909 36.85530164 22.4889909 36.85530164 19.125 41.1875 C13.63230492 45.46963399 6.75891511 44.62869206 0.125 44.5625 C-1.61910156 44.57990234 -1.61910156 44.57990234 -3.3984375 44.59765625 C-14.18746762 44.56062297 -14.18746762 44.56062297 -18.875 41.1875 C-22.61702159 35.57446762 -22.08851085 29.4111197 -22.125 22.875 C-22.145625 21.96298828 -22.16625 21.05097656 -22.1875 20.11132812 C-22.22493954 13.582808 -21.77825202 7.18752709 -17 2.25 C-11.67983798 -0.41008101 -5.80880527 0.00425242 0 0 Z M-3.875 17.1875 C-5.39650158 20.23050316 -5.11399393 22.841585 -4.875 26.1875 C-1.0246895 28.75437367 0.71069763 28.02038724 5.125 27.1875 C6.32488045 21.90550407 6.32488045 21.90550407 4.125 17.1875 C2.14752878 16.82452064 2.14752878 16.82452064 0 17 C-1.27875 17.061875 -2.5575 17.12375 -3.875 17.1875 Z " fill="#FFFFFF" transform="translate(99.875,77.8125)"/>
<path d="M0 0 C0.93328125 -0.01224609 1.8665625 -0.02449219 2.828125 -0.03710938 C9.29659531 -0.05085258 14.26252707 0.24502226 19.4375 4.5 C23.64484298 9.66902138 22.83952072 16.17622969 22.875 22.5625 C22.895625 23.48289062 22.91625 24.40328125 22.9375 25.3515625 C22.9703172 31.0945725 22.38632814 35.12059691 19.625 40.1875 C14.09976466 45.36740813 7.42418061 44.40533864 0.3125 44.4375 C-0.81607422 44.458125 -1.94464844 44.47875 -3.10742188 44.5 C-14.04280164 44.5514909 -14.04280164 44.5514909 -18.375 41.1875 C-22.5507703 35.76076054 -21.81798125 29.22125335 -21.75 22.6875 C-21.76160156 21.57246094 -21.77320312 20.45742187 -21.78515625 19.30859375 C-21.76463238 13.56875054 -21.73021021 9.08495842 -18.375 4.1875 C-13.10524335 -0.74227235 -6.79961876 0.00465727 0 0 Z M-12.375 10.1875 C-12.46237645 12.04119611 -12.48198153 13.89817541 -12.47265625 15.75390625 C-12.46943359 16.87861328 -12.46621094 18.00332031 -12.46289062 19.16210938 C-12.45451172 20.34611328 -12.44613281 21.53011719 -12.4375 22.75 C-12.43298828 23.93787109 -12.42847656 25.12574219 -12.42382812 26.34960938 C-12.41199675 29.29562226 -12.39551287 32.24153681 -12.375 35.1875 C-8.22918113 35.21636751 -4.08338784 35.23425327 0.0625 35.25 C1.24650391 35.25837891 2.43050781 35.26675781 3.65039062 35.27539062 C4.77509766 35.27861328 5.89980469 35.28183594 7.05859375 35.28515625 C8.62178345 35.29301147 8.62178345 35.29301147 10.21655273 35.30102539 C12.57628747 35.46055556 12.57628747 35.46055556 13.625 34.1875 C13.87708722 30.38161856 13.81022344 26.56324544 13.8125 22.75 C13.83086914 21.13641602 13.83086914 21.13641602 13.84960938 19.49023438 C13.85154297 18.46349609 13.85347656 17.43675781 13.85546875 16.37890625 C13.85957764 15.43217041 13.86368652 14.48543457 13.86791992 13.51000977 C13.85116506 10.99385656 13.85116506 10.99385656 11.625 9.1875 C9.21612338 8.8931504 9.21612338 8.8931504 6.43359375 8.95703125 C5.40685547 8.95896484 4.38011719 8.96089844 3.32226562 8.96289062 C1.70868164 8.98125977 1.70868164 8.98125977 0.0625 9 C-1.01708984 9.00064453 -2.09667969 9.00128906 -3.20898438 9.00195312 C-8.14343777 8.56085626 -8.14343777 8.56085626 -12.375 10.1875 Z " fill="#FFFFFF" transform="translate(49.375,77.8125)"/>
<path d="M0 0 C1.12857422 -0.020625 2.25714844 -0.04125 3.41992188 -0.0625 C14.35530164 -0.1139909 14.35530164 -0.1139909 18.6875 3.25 C22.8632703 8.67673946 22.13048125 15.21624665 22.0625 21.75 C22.07410156 22.86503906 22.08570313 23.98007812 22.09765625 25.12890625 C22.07712232 30.87156286 22.03819205 35.34714913 18.6875 40.25 C13.45031012 45.31261688 6.13385195 44.4621036 -0.6875 44.5 C-1.60789062 44.520625 -2.52828125 44.54125 -3.4765625 44.5625 C-9.22080748 44.59532426 -13.2424965 44.00631143 -18.3125 41.25 C-23.28395331 36.11283158 -22.49538611 29.6414763 -22.5 22.9375 C-22.51224609 22.01259766 -22.52449219 21.08769531 -22.53710938 20.13476562 C-22.5485197 14.78332177 -22.23323978 10.26891935 -20.3125 5.25 C-14.20583748 -0.70008143 -8.04553891 0.03638457 0 0 Z M-13.3125 10.25 C-13.56458722 14.05588144 -13.49772344 17.87425456 -13.5 21.6875 C-13.51224609 22.76322266 -13.52449219 23.83894531 -13.53710938 24.94726562 C-13.53904297 25.97400391 -13.54097656 27.00074219 -13.54296875 28.05859375 C-13.54707764 29.00532959 -13.55118652 29.95206543 -13.55541992 30.92749023 C-13.53866506 33.44364344 -13.53866506 33.44364344 -11.3125 35.25 C-8.90362338 35.5443496 -8.90362338 35.5443496 -6.12109375 35.48046875 C-5.09435547 35.47853516 -4.06761719 35.47660156 -3.00976562 35.47460938 C-1.39618164 35.45624023 -1.39618164 35.45624023 0.25 35.4375 C1.86938477 35.4365332 1.86938477 35.4365332 3.52148438 35.43554688 C8.45593777 35.87664374 8.45593777 35.87664374 12.6875 34.25 C12.78696453 32.48140807 12.81830217 30.70888549 12.8203125 28.9375 C12.82160156 27.86242187 12.82289062 26.78734375 12.82421875 25.6796875 C12.81841797 23.98199219 12.81841797 23.98199219 12.8125 22.25 C12.81830078 20.55230469 12.81830078 20.55230469 12.82421875 18.8203125 C12.82228516 17.20769531 12.82228516 17.20769531 12.8203125 15.5625 C12.81918457 14.56863281 12.81805664 13.57476562 12.81689453 12.55078125 C12.9458433 10.28624774 12.9458433 10.28624774 11.6875 9.25 C9.91890807 9.15053547 8.14638549 9.11919783 6.375 9.1171875 C5.29992187 9.11589844 4.22484375 9.11460938 3.1171875 9.11328125 C1.98539063 9.11714844 0.85359375 9.12101562 -0.3125 9.125 C-1.44429687 9.12113281 -2.57609375 9.11726563 -3.7421875 9.11328125 C-4.81726563 9.11457031 -5.89234375 9.11585937 -7 9.1171875 C-7.99386719 9.11831543 -8.98773438 9.11944336 -10.01171875 9.12060547 C-12.27625226 8.9916567 -12.27625226 8.9916567 -13.3125 10.25 Z " fill="#FFFFFF" transform="translate(100.3125,27.75)"/>
<path d="M0 0 C1.11503906 -0.01160156 2.23007812 -0.02320312 3.37890625 -0.03515625 C9.11874946 -0.01463238 13.60254158 0.01978979 18.5 3.375 C23.42977235 8.64475665 22.68284273 14.95038124 22.6875 21.75 C22.69974609 22.68328125 22.71199219 23.6165625 22.72460938 24.578125 C22.73835258 31.04659531 22.44247774 36.01252707 18.1875 41.1875 C13.01847862 45.39484298 6.51127031 44.58952072 0.125 44.625 C-0.79539062 44.645625 -1.71578125 44.66625 -2.6640625 44.6875 C-9.15084502 44.72456733 -14.15344116 44.05224707 -19.375 39.875 C-22.83882678 35.25656429 -21.72517474 28.5927642 -21.75 23.125 C-21.770625 22.00480469 -21.79125 20.88460937 -21.8125 19.73046875 C-21.86503418 8.60635566 -21.86503418 8.60635566 -18.5 3.375 C-13.1771135 -0.85911427 -6.47923986 -0.06741406 0 0 Z M-12.5 9.375 C-12.520625 13.479375 -12.54125 17.58375 -12.5625 21.8125 C-12.571604 23.10857178 -12.58070801 24.40464355 -12.59008789 25.73999023 C-12.59258545 26.75262939 -12.59508301 27.76526855 -12.59765625 28.80859375 C-12.60289307 29.85072021 -12.60812988 30.89284668 -12.61352539 31.96655273 C-12.77305556 34.32628747 -12.77305556 34.32628747 -11.5 35.375 C-7.69411856 35.62708722 -3.87574544 35.56022344 -0.0625 35.5625 C1.01322266 35.57474609 2.08894531 35.58699219 3.19726562 35.59960938 C4.22400391 35.60154297 5.25074219 35.60347656 6.30859375 35.60546875 C7.25532959 35.60957764 8.20206543 35.61368652 9.17749023 35.61791992 C11.69364344 35.60116506 11.69364344 35.60116506 13.5 33.375 C13.79409132 31.08043077 13.79409132 31.08043077 13.73046875 28.4375 C13.72853516 27.46039063 13.72660156 26.48328125 13.72460938 25.4765625 C13.71236328 24.45304687 13.70011719 23.42953125 13.6875 22.375 C13.68685547 21.35148437 13.68621094 20.32796875 13.68554688 19.2734375 C13.87280063 14.15945145 13.87280063 14.15945145 12.5 9.375 C4.25 9.375 -4 9.375 -12.5 9.375 Z " fill="#FFFFFF" transform="translate(49.5,27.625)"/>
<path d="M0 0 C2.5 -0.3125 2.5 -0.3125 5 0 C7.56006715 2.56006715 7.28476023 3.63413977 7.37890625 7.19140625 C7.43014648 8.73151367 7.43014648 8.73151367 7.48242188 10.30273438 C7.50884766 11.37845703 7.53527344 12.45417969 7.5625 13.5625 C7.62216677 15.68892214 7.6857513 17.81523924 7.75390625 19.94140625 C7.77783447 20.88701416 7.8017627 21.83262207 7.82641602 22.80688477 C7.75932813 24.97569799 7.75932813 24.97569799 9 26 C10.68292885 26.13320298 12.37094189 26.20338841 14.05859375 26.24609375 C15.59676758 26.29540039 15.59676758 26.29540039 17.16601562 26.34570312 C19.34299581 26.40678854 21.52008542 26.46409437 23.69726562 26.51757812 C25.23737305 26.56881836 25.23737305 26.56881836 26.80859375 26.62109375 C28.22869751 26.65867798 28.22869751 26.65867798 29.67749023 26.69702148 C32 27 32 27 34 29 C33.67028521 32.29714793 33.3773161 33.6226839 31 36 C27.26979897 36.45673445 23.50491772 36.32398996 19.75 36.3125 C18.71230469 36.32861328 17.67460937 36.34472656 16.60546875 36.36132812 C11.00405309 36.36490502 6.79765155 36.23782395 2 33 C-2.96930084 27.51663355 -2.18324641 21.48439108 -2.1875 14.5 C-2.19974609 13.44167969 -2.21199219 12.38335937 -2.22460938 11.29296875 C-2.22750977 9.77123047 -2.22750977 9.77123047 -2.23046875 8.21875 C-2.23457764 7.28998047 -2.23868652 6.36121094 -2.24291992 5.40429688 C-2 3 -2 3 0 0 Z " fill="#FFFFFF" transform="translate(14,102)"/>
<path d="M0 0 C0.93650391 -0.00322266 1.87300781 -0.00644531 2.83789062 -0.00976562 C7.27231692 0.02505143 10.39884985 0.05874445 14.3125 2.3125 C14.4375 4.6875 14.4375 4.6875 14.3125 7.3125 C11.75243285 9.87256715 10.67836023 9.59726023 7.12109375 9.69140625 C5.58098633 9.74264648 5.58098633 9.74264648 4.00976562 9.79492188 C2.93404297 9.82134766 1.85832031 9.84777344 0.75 9.875 C-1.37642214 9.93466677 -3.50273924 9.9982513 -5.62890625 10.06640625 C-7.04731812 10.10229858 -7.04731812 10.10229858 -8.49438477 10.13891602 C-10.66319799 10.07182813 -10.66319799 10.07182813 -11.6875 11.3125 C-11.82070298 12.99542885 -11.89088841 14.68344189 -11.93359375 16.37109375 C-11.96646484 17.39654297 -11.99933594 18.42199219 -12.03320312 19.47851562 C-12.09428854 21.65549581 -12.15159437 23.83258542 -12.20507812 26.00976562 C-12.23923828 27.03650391 -12.27339844 28.06324219 -12.30859375 29.12109375 C-12.3336499 30.06782959 -12.35870605 31.01456543 -12.38452148 31.98999023 C-12.6875 34.3125 -12.6875 34.3125 -14.6875 36.3125 C-17.1875 36.625 -17.1875 36.625 -19.6875 36.3125 C-22.62810056 31.90159916 -22.05572794 27.81578202 -22.0625 22.625 C-22.08699219 21.65626953 -22.11148437 20.68753906 -22.13671875 19.68945312 C-22.16169293 13.53331693 -21.71806801 8.21394914 -17.6875 3.3125 C-12.0686513 -0.29809099 -6.53547547 -0.11385846 0 0 Z " fill="#FFFFFF" transform="translate(33.6875,11.6875)"/>
<path d="M0 0 C1.33514648 -0.01836914 1.33514648 -0.01836914 2.69726562 -0.03710938 C9.05310583 -0.05124393 13.91902718 0.32231124 19 4.5 C23.10538647 9.54376052 22.34095636 15.52280094 22.3125 21.75 C22.31830078 23.02520508 22.31830078 23.02520508 22.32421875 24.32617188 C22.32292969 25.14794922 22.32164062 25.96972656 22.3203125 26.81640625 C22.31918457 27.55963135 22.31805664 28.30285645 22.31689453 29.06860352 C22.18550151 31.22022621 21.77669579 33.11829354 21.1875 35.1875 C18.3125 35.8125 18.3125 35.8125 15.1875 36.1875 C12.62743285 33.62743285 12.90273977 32.55336023 12.80859375 28.99609375 C12.75735352 27.45598633 12.75735352 27.45598633 12.70507812 25.88476562 C12.67865234 24.80904297 12.65222656 23.73332031 12.625 22.625 C12.56533323 20.49857786 12.5017487 18.37226076 12.43359375 16.24609375 C12.40966553 15.30048584 12.3857373 14.35487793 12.36108398 13.38061523 C12.42817187 11.21180201 12.42817187 11.21180201 11.1875 10.1875 C9.50457115 10.05429702 7.81655811 9.98411159 6.12890625 9.94140625 C5.10345703 9.90853516 4.07800781 9.87566406 3.02148438 9.84179688 C0.84450419 9.78071146 -1.33258542 9.72340563 -3.50976562 9.66992188 C-4.53650391 9.63576172 -5.56324219 9.60160156 -6.62109375 9.56640625 C-7.56782959 9.5413501 -8.51456543 9.51629395 -9.48999023 9.49047852 C-11.8125 9.1875 -11.8125 9.1875 -13.8125 7.1875 C-13.4375 4.0625 -13.4375 4.0625 -12.8125 1.1875 C-8.54622045 -0.23459318 -4.46861837 0.00319415 0 0 Z " fill="#FFFFFF" transform="translate(115.8125,11.8125)"/>
<path d="M0 0 C2.4375 0.1875 2.4375 0.1875 3.4375 1.1875 C3.7763324 5.76302409 3.76264729 10.35105078 3.8125 14.9375 C3.86857422 16.87109375 3.86857422 16.87109375 3.92578125 18.84375 C3.93738281 20.08640625 3.94898438 21.3290625 3.9609375 22.609375 C3.9906665 24.32012207 3.9906665 24.32012207 4.02099609 26.06542969 C3.26072869 30.13333748 1.57253441 31.58569898 -1.5625 34.1875 C-4.3160496 35.5642748 -6.55090409 35.31719689 -9.62890625 35.3203125 C-10.83611328 35.32160156 -12.04332031 35.32289063 -13.28710938 35.32421875 C-15.18686523 35.31841797 -15.18686523 35.31841797 -17.125 35.3125 C-18.39537109 35.31636719 -19.66574219 35.32023437 -20.97460938 35.32421875 C-22.18052734 35.32292969 -23.38644531 35.32164062 -24.62890625 35.3203125 C-25.74209229 35.31918457 -26.85527832 35.31805664 -28.00219727 35.31689453 C-30.5625 35.1875 -30.5625 35.1875 -31.5625 34.1875 C-31.75 31.75 -31.75 31.75 -31.5625 29.1875 C-29.00243285 26.62743285 -27.92836023 26.90273977 -24.37109375 26.80859375 C-23.34435547 26.77443359 -22.31761719 26.74027344 -21.25976562 26.70507812 C-20.18404297 26.67865234 -19.10832031 26.65222656 -18 26.625 C-15.87357786 26.56533323 -13.74726076 26.5017487 -11.62109375 26.43359375 C-10.67548584 26.40966553 -9.72987793 26.3857373 -8.75561523 26.36108398 C-6.58680201 26.42817187 -6.58680201 26.42817187 -5.5625 25.1875 C-5.42929702 23.50457115 -5.35911159 21.81655811 -5.31640625 20.12890625 C-5.28353516 19.10345703 -5.25066406 18.07800781 -5.21679688 17.02148438 C-5.15571146 14.84450419 -5.09840563 12.66741458 -5.04492188 10.49023438 C-5.01076172 9.46349609 -4.97660156 8.43675781 -4.94140625 7.37890625 C-4.9163501 6.43217041 -4.89129395 5.48543457 -4.86547852 4.51000977 C-4.41846874 1.0834151 -3.42160286 0.25036118 0 0 Z " fill="#FFFFFF" transform="translate(133.5625,101.8125)"/>
<path d="M0 0 C1 1 1 1 1.25 4.375 C1 8 1 8 -0.0625 9.9375 C-3.04873337 11.57511185 -5.66563234 11.24249947 -9 11 C-9.66 10.67 -10.32 10.34 -11 10 C-11.89556482 6.71626233 -12.12419035 4.50805143 -11.3125 1.1875 C-10 -1 -10 -1 -8.25 -1.9375 C-5.17696165 -2.02286218 -2.83443763 -1.13377505 0 0 Z " fill="#FFFFFF" transform="translate(55,45)"/>
<path d="M0 0 C0.80308594 0.01417969 1.60617188 0.02835938 2.43359375 0.04296875 C3.64208984 0.05263672 3.64208984 0.05263672 4.875 0.0625 C6.87109375 0.23046875 6.87109375 0.23046875 7.87109375 1.23046875 C8.0390625 3.2265625 8.0390625 3.2265625 8.05859375 5.66796875 C8.07277344 6.47105469 8.08695313 7.27414063 8.1015625 8.1015625 C7.87109375 10.23046875 7.87109375 10.23046875 5.87109375 12.23046875 C3.99609375 12.49609375 3.99609375 12.49609375 1.87109375 12.48046875 C1.16984375 12.485625 0.46859375 12.49078125 -0.25390625 12.49609375 C-2.12890625 12.23046875 -2.12890625 12.23046875 -4.12890625 10.23046875 C-4.39453125 8.35546875 -4.39453125 8.35546875 -4.37890625 6.23046875 C-4.3840625 5.52921875 -4.38921875 4.82796875 -4.39453125 4.10546875 C-3.9845121 1.21121594 -2.85676942 0.30926495 0 0 Z " fill="#FFFFFF" transform="translate(98.12890625,43.76953125)"/>
<path d="M0 0 C3.625 0.25 3.625 0.25 5.5625 1.3125 C7.21662584 4.32884711 6.93075763 6.88666608 6.625 10.25 C4.625 12.25 4.625 12.25 2.4609375 12.4453125 C1.24277344 12.41050781 1.24277344 12.41050781 0 12.375 C-0.81726562 12.35695313 -1.63453125 12.33890625 -2.4765625 12.3203125 C-3.10304687 12.29710938 -3.72953125 12.27390625 -4.375 12.25 C-6.58391161 6.97315559 -6.58391161 6.97315559 -5.5625 3.4375 C-3.85129548 0.28528115 -3.85129548 0.28528115 0 0 Z " fill="#FFFFFF" transform="translate(49.375,93.75)"/>
</svg>
