<?xml version="1.0" encoding="UTF-8"?>
<svg version="1.1" xmlns="http://www.w3.org/2000/svg" width="27" height="27">
<path d="M0 0 C0.78503906 -0.00386719 1.57007813 -0.00773437 2.37890625 -0.01171875 C8.24669213 -0.00165394 8.24669213 -0.00165394 10.5 1.125 C10.46519531 1.89585938 10.43039063 2.66671875 10.39453125 3.4609375 C10.36746094 4.46382813 10.34039063 5.46671875 10.3125 6.5 C10.27769531 7.49773438 10.24289063 8.49546875 10.20703125 9.5234375 C10.35205078 10.81121094 10.35205078 10.81121094 10.5 12.125 C11.49 12.785 12.48 13.445 13.5 14.125 C13.5 18.415 13.5 22.705 13.5 27.125 C4.59 27.125 -4.32 27.125 -13.5 27.125 C-13.5 22.835 -13.5 18.545 -13.5 14.125 C-12.51 13.465 -11.52 12.805 -10.5 12.125 C-10.13539547 9.45846095 -10.13539547 9.45846095 -10.3125 6.5 C-10.33957031 5.49710937 -10.36664063 4.49421875 -10.39453125 3.4609375 C-10.44673828 2.30464844 -10.44673828 2.30464844 -10.5 1.125 C-7.21855481 -0.51572259 -3.60210004 -0.01774434 0 0 Z M-8.5 13.125 C-8.5 16.095 -8.5 19.065 -8.5 22.125 C-2.89 22.125 2.72 22.125 8.5 22.125 C8.5 19.155 8.5 16.185 8.5 13.125 C8.17 13.125 7.84 13.125 7.5 13.125 C7.5 15.765 7.5 18.405 7.5 21.125 C2.55 21.125 -2.4 21.125 -7.5 21.125 C-7.5 18.485 -7.5 15.845 -7.5 13.125 C-7.83 13.125 -8.16 13.125 -8.5 13.125 Z " fill="#FFFFFF" transform="translate(13.5,-0.125)"/>
</svg>
