<svg width="30" height="30" viewBox="0 0 30 30" fill="none" xmlns="http://www.w3.org/2000/svg">
<path fill-rule="evenodd" clip-rule="evenodd" d="M4.78906 4C4.78906 2.89543 5.68449 2 6.78906 2H23.2171C24.3216 2 25.2171 2.89543 25.2171 4V12.5112C23.2711 12.7824 21.7733 14.4531 21.7733 16.4738V21.7734H8.23271V16.4738C8.23271 14.4532 6.73493 12.7824 4.78906 12.5112V4ZM23.5428 23.5508H6.45695V16.4746C6.45695 15.2438 5.45923 14.2461 4.22848 14.2461C2.99772 14.2461 2 15.2438 2 16.4746V24.5508V25.7712V27.001C2 27.5533 2.44771 28.001 3 28.001H26.9989C27.5512 28.001 27.9989 27.5533 27.9989 27.001V25.8336C27.9995 25.8129 27.9997 25.7921 27.9997 25.7712V16.4746C27.9997 15.2438 27.002 14.2461 25.7713 14.2461C24.5405 14.2461 23.5428 15.2438 23.5428 16.4746V23.5508Z" fill="#3DA758"/>
<path fill-rule="evenodd" clip-rule="evenodd" d="M4.19791 14.2455C4.20782 14.2454 4.21775 14.2453 4.22769 14.2453C4.33484 14.2453 4.44023 14.2529 4.54334 14.2675C5.62435 14.4208 6.45578 15.3497 6.45617 16.473C6.45617 16.4733 6.45617 16.4727 6.45617 16.473V23.55H23.542V16.4738C23.542 16.4735 23.542 16.4741 23.542 16.4738C23.5424 15.3484 24.377 14.4172 25.461 14.2666C25.5622 14.2526 25.6655 14.2453 25.7705 14.2453C25.7823 14.2453 25.7942 14.2454 25.806 14.2456C27.0204 14.2646 27.999 15.2549 27.999 16.4738V25.7704C27.999 25.7913 27.9987 25.8121 27.9981 25.8329V27.0003C27.9981 27.5526 27.5504 28.0003 26.9981 28.0003H2.99922C2.44693 28.0003 1.99922 27.5526 1.99922 27.0003V16.4738C1.99922 15.253 2.98088 14.2614 4.19791 14.2455ZM29.7981 25.854V27.0003C29.7981 28.5467 28.5445 29.8003 26.9981 29.8003H2.99922C1.45282 29.8003 0.199219 28.5467 0.199219 27.0003V16.4738C0.199219 14.6814 1.36985 13.1623 2.98828 12.6396V3.99922C2.98828 1.90053 4.6896 0.199219 6.78828 0.199219H23.2163C25.315 0.199219 27.0163 1.90054 27.0163 3.99922V12.6416C28.6314 13.1663 29.799 14.6837 29.799 16.4738V25.7704C29.799 25.7984 29.7987 25.8262 29.7981 25.854ZM4.78828 12.5104C6.73415 12.7817 8.23193 14.4524 8.23193 16.473V21.7727H21.7725V16.4738C21.7725 14.4532 23.2703 12.7816 25.2163 12.5104V3.99922C25.2163 2.89465 24.3208 1.99922 23.2163 1.99922H6.78828C5.68371 1.99922 4.78828 2.89465 4.78828 3.99922V12.5104Z" fill="#FAFAFA"/>
<path d="M20.8709 7.30863C20.7896 7.22662 20.6928 7.16152 20.5862 7.1171C20.4795 7.07268 20.3652 7.0498 20.2497 7.0498C20.1341 7.0498 20.0198 7.07268 19.9131 7.1171C19.8065 7.16152 19.7097 7.22662 19.6284 7.30863L13.1097 13.8361L10.3709 11.0886C10.2864 11.007 10.1867 10.9429 10.0775 10.8998C9.96825 10.8568 9.85159 10.8357 9.73418 10.8377C9.61677 10.8397 9.50092 10.8649 9.39322 10.9117C9.28553 10.9585 9.18811 11.026 9.10653 11.1105C9.02494 11.195 8.96079 11.2947 8.91774 11.4039C8.87469 11.5132 8.85357 11.6298 8.8556 11.7472C8.85763 11.8646 8.88277 11.9805 8.92958 12.0882C8.97638 12.1959 9.04394 12.2933 9.1284 12.3749L12.4884 15.7349C12.5697 15.8169 12.6665 15.882 12.7731 15.9264C12.8798 15.9708 12.9941 15.9937 13.1097 15.9937C13.2252 15.9937 13.3395 15.9708 13.4462 15.9264C13.5528 15.882 13.6496 15.8169 13.7309 15.7349L20.8709 8.59488C20.9597 8.51294 21.0306 8.4135 21.0791 8.30281C21.1276 8.19212 21.1526 8.07259 21.1526 7.95175C21.1526 7.83091 21.1276 7.71138 21.0791 7.6007C21.0306 7.49001 20.9597 7.39057 20.8709 7.30863Z" fill="#FAFAFA"/>
</svg>
