<svg width="72" height="30" viewBox="0 0 72 30" fill="none" xmlns="http://www.w3.org/2000/svg">
<path fill-rule="evenodd" clip-rule="evenodd" d="M10.2891 2C9.18449 2 8.28906 2.89543 8.28906 4V12.4836C10.2501 12.755 11.7601 14.4381 11.7601 16.4738V21.75H60.2461V16.4738C60.2461 14.3128 61.9476 12.5492 64.084 12.4497V4C64.084 2.89543 63.1886 2 62.084 2H10.2891ZM64.084 14.2533C63.9633 14.2636 63.8453 14.2834 63.7308 14.3121C62.7613 14.5537 62.043 15.4303 62.043 16.4746V23.5508H9.96008V16.4738C9.96008 15.4355 9.25005 14.5631 8.28906 14.3156V14.3172C8.10995 14.2708 7.9221 14.2461 7.72848 14.2461C6.49772 14.2461 5.5 15.2438 5.5 16.4746V24.5508V25.7712V27.001C5.5 27.5533 5.94771 28.001 6.5 28.001H65.5C66.0523 28.001 66.5 27.5533 66.5 27.001V24.5508L66.4999 24.538V16.4746C66.4999 15.2438 65.5022 14.2461 64.2714 14.2461C64.2083 14.2461 64.1458 14.2487 64.084 14.2539V14.2533ZM36.1875 19.8242V3.69922L37.9875 3.69922L37.9875 19.8242H36.1875Z" fill="#3DA758"/>
<path fill-rule="evenodd" clip-rule="evenodd" d="M6.48828 12.6396V3.99922C6.48828 1.90053 8.1896 0.199219 10.2883 0.199219H62.0832C64.1819 0.199219 65.8832 1.90054 65.8832 3.99922V12.781C67.3054 13.4029 68.2991 14.8223 68.2991 16.4738V24.5372L68.2992 24.5387L68.2993 24.55L68.2992 27.0003C68.2992 28.5467 67.0456 29.8003 65.4992 29.8003H6.49922C4.95282 29.8003 3.69922 28.5467 3.69922 27.0003V16.4738C3.69922 14.6814 4.86985 13.1623 6.48828 12.6396ZM66.4991 24.5372V16.4738C66.4991 15.3062 65.6012 14.3483 64.4581 14.2531C64.456 14.2529 64.4539 14.2527 64.4518 14.2526C64.392 14.2478 64.3316 14.2453 64.2707 14.2453C64.2097 14.2453 64.1493 14.2478 64.0895 14.2526C64.0874 14.2527 64.0853 14.2529 64.0832 14.2531C64.0812 14.2533 64.0792 14.2529 64.0772 14.2531C63.9586 14.2635 63.8426 14.2831 63.73 14.3113C63.6836 14.3229 63.6377 14.336 63.5924 14.3504C63.0217 14.5325 62.551 14.9383 62.2832 15.4647C62.1292 15.7675 62.0423 16.1101 62.0422 16.473V23.5492L9.9593 23.55V16.473C9.9593 15.437 9.25228 14.566 8.29441 14.3164L8.28867 14.3149L8.28828 14.3164L8.28212 14.3148C8.10486 14.2694 7.9191 14.2453 7.72769 14.2453C7.53629 14.2453 7.35053 14.2694 7.17327 14.3148C7.17122 14.3154 7.16916 14.3159 7.16711 14.3164C6.20771 14.565 5.49922 15.4367 5.49922 16.4738V27.0003C5.49922 27.5526 5.94693 28.0003 6.49922 28.0003H65.4992C66.0515 28.0003 66.4992 27.5526 66.4992 27.0003V24.55L66.4991 24.5372ZM60.2453 21.7492V16.4738C60.2453 14.8244 61.2366 13.4057 62.6559 12.7826C63.0596 12.6053 63.498 12.4924 63.958 12.4567C63.9996 12.4535 64.0413 12.4509 64.0832 12.449V3.99922C64.0832 2.89465 63.1878 1.99922 62.0832 1.99922H10.2883C9.18371 1.99922 8.28828 2.89465 8.28828 3.99922V12.4828C8.42148 12.5012 8.55259 12.5262 8.68129 12.5573C9.6768 12.7981 10.5279 13.4086 11.0812 14.2354C11.5095 14.8754 11.7593 15.6451 11.7593 16.473V21.7492H60.2453ZM37.9867 3.69844L36.1867 3.69844V19.8234H37.9867L37.9867 3.69844Z" fill="#FAFAFA"/>
<path d="M28.3709 7.30863C28.2896 7.22662 28.1928 7.16152 28.0862 7.1171C27.9795 7.07268 27.8652 7.0498 27.7497 7.0498C27.6341 7.0498 27.5198 7.07268 27.4131 7.1171C27.3065 7.16152 27.2097 7.22662 27.1284 7.30863L20.6097 13.8361L17.8709 11.0886C17.7864 11.007 17.6867 10.9429 17.5775 10.8998C17.4682 10.8568 17.3516 10.8357 17.2342 10.8377C17.1168 10.8397 17.0009 10.8649 16.8932 10.9117C16.7855 10.9585 16.6881 11.026 16.6065 11.1105C16.5249 11.195 16.4608 11.2947 16.4177 11.4039C16.3747 11.5132 16.3536 11.6298 16.3556 11.7472C16.3576 11.8646 16.3828 11.9805 16.4296 12.0882C16.4764 12.1959 16.5439 12.2933 16.6284 12.3749L19.9884 15.7349C20.0697 15.8169 20.1665 15.882 20.2731 15.9264C20.3798 15.9708 20.4941 15.9937 20.6097 15.9937C20.7252 15.9937 20.8395 15.9708 20.9462 15.9264C21.0528 15.882 21.1496 15.8169 21.2309 15.7349L28.3709 8.59488C28.4597 8.51294 28.5306 8.4135 28.5791 8.30281C28.6276 8.19212 28.6526 8.07259 28.6526 7.95175C28.6526 7.83091 28.6276 7.71138 28.5791 7.6007C28.5306 7.49001 28.4597 7.39057 28.3709 7.30863Z" fill="#FAFAFA"/>
<path d="M55.3709 7.30863C55.2896 7.22662 55.1928 7.16152 55.0862 7.1171C54.9795 7.07268 54.8652 7.0498 54.7497 7.0498C54.6341 7.0498 54.5198 7.07268 54.4131 7.1171C54.3065 7.16152 54.2097 7.22662 54.1284 7.30863L47.6097 13.8361L44.8709 11.0886C44.7864 11.007 44.6867 10.9429 44.5775 10.8998C44.4682 10.8568 44.3516 10.8357 44.2342 10.8377C44.1168 10.8397 44.0009 10.8649 43.8932 10.9117C43.7855 10.9585 43.6881 11.026 43.6065 11.1105C43.5249 11.195 43.4608 11.2947 43.4177 11.4039C43.3747 11.5132 43.3536 11.6298 43.3556 11.7472C43.3576 11.8646 43.3828 11.9805 43.4296 12.0882C43.4764 12.1959 43.5439 12.2933 43.6284 12.3749L46.9884 15.7349C47.0697 15.8169 47.1665 15.882 47.2731 15.9264C47.3798 15.9708 47.4941 15.9937 47.6097 15.9937C47.7252 15.9937 47.8395 15.9708 47.9462 15.9264C48.0528 15.882 48.1496 15.8169 48.2309 15.7349L55.3709 8.59488C55.4597 8.51294 55.5306 8.4135 55.5791 8.30281C55.6276 8.19212 55.6526 8.07259 55.6526 7.95175C55.6526 7.83091 55.6276 7.71138 55.5791 7.6007C55.5306 7.49001 55.4597 7.39057 55.3709 7.30863Z" fill="#FAFAFA"/>
</svg>
