<?xml version="1.0" encoding="utf-8"?>
<!-- Generator: Adobe Illustrator 27.7.0, SVG Export Plug-In . SVG Version: 6.00 Build 0)  -->
<svg version="1.1" id="Layer_1" xmlns="http://www.w3.org/2000/svg" xmlns:xlink="http://www.w3.org/1999/xlink" x="0px" y="0px"
	 width="27px" height="27px" viewBox="0 0 27 27" style="enable-background:new 0 0 27 27;" xml:space="preserve">
<style type="text/css">
	.st0{fill-rule:evenodd;clip-rule:evenodd;fill:#454545;}
</style>
<path class="st0" d="M5.2,0.9c-1.1,0-2,0.9-2,2v8.5c1.9,0.3,3.4,1.9,3.4,4v5.3h13.5v-5.3c0-2,1.5-3.7,3.4-4V2.9c0-1.1-0.9-2-2-2H5.2
	z M18.9,4.9c-0.3-0.3-0.9-0.3-1.2,0l-4.3,4.3L9.1,4.9c-0.3-0.3-0.9-0.3-1.2,0s-0.3,0.9,0,1.2l4.3,4.3l-4.3,4.3
	c-0.3,0.3-0.3,0.9,0,1.2c0.3,0.3,0.9,0.3,1.2,0l4.3-4.3l4.3,4.3c0.3,0.3,0.9,0.3,1.2,0c0.3-0.3,0.3-0.9,0-1.2l-4.3-4.3l4.3-4.3
	C19.3,5.8,19.3,5.2,18.9,4.9z M22,22.5H4.9v-7.1c0-1.2-1-2.2-2.2-2.2c-1.2,0-2.2,1-2.2,2.2v8.1v1.2v1.2c0,0.6,0.4,1,1,1h24
	c0.6,0,1-0.4,1-1v-1.2c0,0,0,0,0-0.1v-9.3c0-1.2-1-2.2-2.2-2.2c-1.2,0-2.2,1-2.2,2.2V22.5z"/>
</svg>
