<?xml version="1.0" encoding="utf-8"?>
<!-- Generator: Adobe Illustrator 27.7.0, SVG Export Plug-In . SVG Version: 6.00 Build 0)  -->
<svg version="1.1" id="Layer_1" xmlns="http://www.w3.org/2000/svg" xmlns:xlink="http://www.w3.org/1999/xlink" x="0px" y="0px"
	 width="61px" height="27px" viewBox="0 0 61 27" style="enable-background:new 0 0 61 27;" xml:space="preserve">
<style type="text/css">
	.st0{fill-rule:evenodd;clip-rule:evenodd;fill:#C51322;}
	.st1{fill:#111111;}
</style>
<g>
	<path class="st0" d="M4.8,0.9c-1.1,0-2,0.9-2,2v8.5c2,0.3,3.5,2,3.5,4v5.3h48.5v-5.3c0-2.2,1.7-3.9,3.8-4V2.9c0-1.1-0.9-2-2-2H4.8z
		 M58.6,13.1c-0.1,0-0.2,0-0.4,0.1c-1,0.2-1.7,1.1-1.7,2.2v7.1H4.5v-7.1c0-1-0.7-1.9-1.7-2.2v0c-0.2,0-0.4-0.1-0.6-0.1
		c-1.2,0-2.2,1-2.2,2.2v8.1v1.2v1.2c0,0.6,0.4,1,1,1h59c0.6,0,1-0.4,1-1v-2.5l0,0v-8.1c0-1.2-1-2.2-2.2-2.2
		C58.7,13.1,58.6,13.1,58.6,13.1L58.6,13.1z M30.7,18.7V2.6h1.8v16.1H30.7z"/>
	<path class="st1" d="M23.1,15.5c-0.1,0.2-0.1,0.3-0.2,0.5c-0.3,0.4-0.7,0.6-1.2,0.5c-0.3,0-0.5-0.2-0.8-0.4c-1.3-1.3-2.6-2.6-3.9-4
		c0,0-0.1-0.1-0.1-0.1c0,0-0.1,0.1-0.1,0.1c-1.3,1.3-2.6,2.7-4,4c-0.4,0.4-1.1,0.5-1.6,0.2c-0.5-0.3-0.6-1.2-0.2-1.7
		c0,0,0.1-0.1,0.1-0.1c1.3-1.3,2.6-2.7,4-4c0,0,0.1-0.1,0.1-0.1c0-0.1-0.1-0.1-0.1-0.1c-1.3-1.3-2.6-2.7-4-4
		c-0.4-0.4-0.5-1.1-0.1-1.6c0.4-0.5,1.1-0.6,1.6-0.2c0.1,0,0.1,0.1,0.2,0.2c1.3,1.3,2.6,2.6,3.9,4c0,0,0.1,0.1,0.1,0.1
		c0,0,0.1-0.1,0.1-0.1c1.3-1.3,2.6-2.6,3.9-4C21.6,4,22.7,4.3,23,5.1c0.1,0.4,0,0.8-0.3,1.2c-1.3,1.3-2.6,2.6-3.9,4
		c0,0-0.1,0.1-0.1,0.1c0,0,0.1,0.1,0.1,0.1c1.3,1.3,2.6,2.6,3.9,3.9c0.2,0.2,0.4,0.5,0.5,0.8L23.1,15.5L23.1,15.5z"/>
	<path class="st1" d="M50.1,15.5c-0.1,0.2-0.1,0.3-0.2,0.5c-0.3,0.4-0.7,0.6-1.2,0.5c-0.3,0-0.5-0.2-0.8-0.4c-1.3-1.3-2.6-2.6-3.9-4
		c0,0-0.1-0.1-0.1-0.1c0,0-0.1,0.1-0.1,0.1c-1.3,1.3-2.6,2.7-4,4c-0.4,0.4-1.1,0.5-1.6,0.2c-0.5-0.3-0.6-1.2-0.2-1.7
		c0,0,0.1-0.1,0.1-0.1c1.3-1.3,2.6-2.7,4-4c0,0,0.1-0.1,0.1-0.1c0-0.1-0.1-0.1-0.1-0.1c-1.3-1.3-2.6-2.7-4-4
		c-0.4-0.4-0.5-1.1-0.1-1.6c0.4-0.5,1.1-0.6,1.6-0.2c0.1,0,0.1,0.1,0.2,0.2c1.3,1.3,2.6,2.6,3.9,4c0,0,0.1,0.1,0.1,0.1
		c0,0,0.1-0.1,0.1-0.1c1.3-1.3,2.6-2.6,3.9-4C48.6,4,49.7,4.3,50,5.1c0.1,0.4,0,0.8-0.3,1.2c-1.3,1.3-2.6,2.6-3.9,4
		c0,0-0.1,0.1-0.1,0.1c0,0,0.1,0.1,0.1,0.1c1.3,1.3,2.6,2.6,3.9,3.9c0.2,0.2,0.4,0.5,0.5,0.8L50.1,15.5L50.1,15.5z"/>
</g>
</svg>
