<?xml version="1.0" encoding="UTF-8"?>
<svg version="1.1" xmlns="http://www.w3.org/2000/svg" width="150" height="150">
<path d="M0 0 C11.76096067 9.72216949 19.63223264 22.81316632 21.22314453 38.15136719 C22.42330525 55.46528454 18.03871362 69.85637133 6.8125 83.1875 C-3.63124438 94.36844987 -17.79631802 100.77391831 -32.98364258 101.33666992 C-49.23479982 101.6193144 -63.37173542 96.53285646 -75.3125 85.3125 C-87.34109215 72.58771924 -91.65651156 57.98072343 -91.33984375 40.8515625 C-90.6230548 25.89119558 -83.41787672 12.35946735 -72.64453125 2.13671875 C-51.20380141 -15.18688424 -22.51441169 -16.06850478 0 0 Z M-37 4 C-37 19.84 -37 35.68 -37 52 C-34.69 52 -32.38 52 -30 52 C-30 36.16 -30 20.32 -30 4 C-32.31 4 -34.62 4 -37 4 Z " fill="#FFFFFF" transform="translate(110,43)"/>
<path d="M0 0 C1.21429688 0.00322266 2.42859375 0.00644531 3.6796875 0.00976562 C5.50113281 -0.0144043 5.50113281 -0.0144043 7.359375 -0.0390625 C8.51695313 -0.03970703 9.67453125 -0.04035156 10.8671875 -0.04101562 C12.46626953 -0.04548706 12.46626953 -0.04548706 14.09765625 -0.05004883 C14.94972656 0.07281494 15.80179688 0.19567871 16.6796875 0.32226562 C19.03088149 3.84905661 18.89412202 5.35106048 18.8046875 9.50976562 C18.78664063 10.59644531 18.76859375 11.683125 18.75 12.80273438 C18.72679688 13.63417969 18.70359375 14.465625 18.6796875 15.32226562 C16.6996875 15.32226562 14.7196875 15.32226562 12.6796875 15.32226562 C12.6796875 17.63226562 12.6796875 19.94226563 12.6796875 22.32226562 C6.7396875 22.32226562 0.7996875 22.32226562 -5.3203125 22.32226562 C-5.3203125 20.01226563 -5.3203125 17.70226562 -5.3203125 15.32226562 C-7.3003125 15.32226562 -9.2803125 15.32226562 -11.3203125 15.32226562 C-11.37417879 13.19753987 -11.41304321 11.0724291 -11.4453125 8.94726562 C-11.46851563 7.76390625 -11.49171875 6.58054687 -11.515625 5.36132812 C-11.07402511 -1.50996613 -5.45337677 0.03340041 0 0 Z " fill="#FFFFFF" transform="translate(71.3203125,5.677734375)"/>
<path d="M0 0 C5.86013686 0.11720274 10.71387752 2.01541378 15 6 C15.98510993 9.40999591 15.49787666 11.06032153 13.85546875 14.16015625 C12.63233387 16.15876569 11.35706282 18.09041874 10 20 C5.95698825 18.51481201 2.38853744 16.57122002 -1.3125 14.375 C-2.38113281 13.74335937 -3.44976562 13.11171875 -4.55078125 12.4609375 C-5.35902344 11.97882812 -6.16726562 11.49671875 -7 11 C-6.21258141 9.53936857 -5.4199095 8.08156827 -4.625 6.625 C-4.18414062 5.81289063 -3.74328125 5.00078125 -3.2890625 4.1640625 C-2 2 -2 2 0 0 Z " fill="#FFFFFF" transform="translate(105,19)"/>
</svg>
